# xmcd
# 
# Track frame offsets:
#     150
#     17329
#     39411
#     56912
#     75627
#     98624
#     118806
#     129801
#     140120
#     156577
#     178983
#     206230
# 
# Disc length: 2929
# 
# Revision: 0
# Processed by: cddbd v1.5.2PL0 Copyright (c) Steve Scherf et al.
# Submitted via: fre:ac v1.0.31
# 
DISCID=a80b6f0c
DTITLE=電開製作所 - 輝け！全日本8ビット歌謡祭
DYEAR=2009
DGENRE=
TTITLE0=ゼビウスチックにKOIしたい (ゼビウス)
TTITLE1=My Right Way (Quartet 1～2面＆5～6面)
TTITLE2=SORCERIAN (ソーサリアン～盗賊たちの塔「封印」)
TTITLE3=彼岸花の咲く丘で (新・鬼ヶ島 第4章)
TTITLE4=はんぶんのすなどけい (ミネルバトンサーガ)
TTITLE5=WASTE DAYS (Metal Black 4面)
TTITLE6=青春スキャンダル (青春スキャンダル)
TTITLE7=ABUってハニー (BUGってハニー)
TTITLE8=スーパーモンキークエスト (元祖スーパーモンキー大冒険)
TTITLE9=Sweet Vampire ～恋する魔女の片思い～ (悪魔城すぺしゃる ぼくドラキュラくん)
TTITLE10=ついたぞれんしゃ つよいぞレーザー がったいヤンデレ ヴォルガードⅡ (高機動戦闘メカ ヴォルガードⅡ)
TTITLE11=スクール水着で世界を救う (スクーン)
EXTD=
EXTT0=
EXTT1=
EXTT2=
EXTT3=
EXTT4=
EXTT5=
EXTT6=
EXTT7=
EXTT8=
EXTT9=
EXTT10=
EXTT11=
PLAYORDER=
